<?xml version="1.0" encoding="UTF-8"?>
<svg xmlns="http://www.w3.org/2000/svg" xmlns:xlink="http://www.w3.org/1999/xlink"
     width="512" height="256" viewBox="-256.0 -128.0 512 256">
<defs>
</defs>
<path d="M253,-26 L237,89" stroke="rgb(44,176,168)" stroke-width="2" fill="none" />
<path d="M-87,-74 L118,39" stroke="rgb(75,12,221)" stroke-width="1" fill="none" />
<path d="M125,-54 L2,31" stroke="rgb(10,75,182)" stroke-width="3" fill="none" />
<path d="M-122,-5 L-80,127" stroke="rgb(94,149,138)" stroke-width="1" fill="none" />
<path d="M-32,-4 L-214,-59" stroke="rgb(107,177,87)" stroke-width="2" fill="none" />
<path d="M103,43 L-186,-41" stroke="rgb(136,226,135)" stroke-width="2" fill="none" />
<path d="M-222,55 L60,70" stroke="rgb(142,167,220)" stroke-width="2" fill="none" />
<path d="M42,-27 L141,100" stroke="rgb(247,149,39)" stroke-width="3" fill="none" />
<path d="M39,100 L-94,-7" stroke="rgb(79,52,147)" stroke-width="3" fill="none" />
<path d="M-141,26 L28,61" stroke="rgb(212,98,141)" stroke-width="1" fill="none" />
<path d="M-76,123 L-33,118" stroke="rgb(133,169,63)" stroke-width="2" fill="none" />
<path d="M-221,-124 L14,-55" stroke="rgb(5,80,76)" stroke-width="3" fill="none" />
<path d="M-45,75 L-229,-62" stroke="rgb(39,155,126)" stroke-width="2" fill="none" />
<path d="M121,-86 L-43,103" stroke="rgb(176,24,139)" stroke-width="1" fill="none" />
<path d="M7,80 L211,121" stroke="rgb(208,53,148)" stroke-width="1" fill="none" />
<path d="M142,-87 L105,7" stroke="rgb(216,72,198)" stroke-width="3" fill="none" />
<path d="M46,-61 L22,103" stroke="rgb(107,65,22)" stroke-width="3" fill="none" />
<path d="M145,-5 L-48,78" stroke="rgb(232,7,138)" stroke-width="1" fill="none" />
<path d="M223,87 L-176,-81" stroke="rgb(154,208,172)" stroke-width="2" fill="none" />
<path d="M46,-5 L-14,-63" stroke="rgb(209,222,79)" stroke-width="1" fill="none" />
<path d="M200,7 L249,38" stroke="rgb(109,92,122)" stroke-width="3" fill="none" />
<path d="M219,-110 L0,18" stroke="rgb(124,23,150)" stroke-width="3" fill="none" />
<path d="M54,114 L-125,86" stroke="rgb(112,147,159)" stroke-width="3" fill="none" />
<path d="M-239,-86 L-8,78" stroke="rgb(209,14,224)" stroke-width="1" fill="none" />
<path d="M2,-70 L-20,-34" stroke="rgb(80,196,143)" stroke-width="1" fill="none" />
<path d="M164,-96 L144,126" stroke="rgb(120,68,68)" stroke-width="2" fill="none" />
<path d="M-158,-61 L-237,85" stroke="rgb(7,94,87)" stroke-width="3" fill="none" />
<path d="M175,7 L-189,72" stroke="rgb(217,51,173)" stroke-width="1" fill="none" />
<path d="M-44,15 L139,-31" stroke="rgb(40,126,244)" stroke-width="1" fill="none" />
<path d="M142,15 L37,22" stroke="rgb(10,40,77)" stroke-width="3" fill="none" />
</svg>